<svg id="eouXs3khZAc1" xmlns="http://www.w3.org/2000/svg" xmlns:xlink="http://www.w3.org/1999/xlink" viewBox="0 0 1920 1080" shape-rendering="geometricPrecision" text-rendering="geometricPrecision" style="background-color:#3423f2">
<style><![CDATA[
#eouXs3khZAc2_to {animation: eouXs3khZAc2_to__to 10000ms linear infinite normal forwards}@keyframes eouXs3khZAc2_to__to { 0% {transform: translate(3430.206336px,1893.095176px)} 100% {transform: translate(-534.898226px,1150.927151px)}} #eouXs3khZAc3_to {animation: eouXs3khZAc3_to__to 10000ms linear infinite normal forwards}@keyframes eouXs3khZAc3_to__to { 0% {transform: translate(3187.710859px,-497.48389px)} 100% {transform: translate(35.149087px,2154.090506px)}} #eouXs3khZAc6_to {animation: eouXs3khZAc6_to__to 10000ms linear infinite normal forwards}@keyframes eouXs3khZAc6_to__to { 0% {transform: translate(4048.495902px,540px)} 100% {transform: translate(164.877653px,1957.73207px)}}
]]></style>
<defs><linearGradient id="eouXs3khZAc2-fill" x1="0.5" y1="0" x2="0.5" y2="1" spreadMethod="pad" gradientUnits="objectBoundingBox" gradientTransform="translate(0 0)"><stop id="eouXs3khZAc2-fill-0" offset="0%" stop-color="#0089d9"/><stop id="eouXs3khZAc2-fill-1" offset="100%" stop-color="#0ffafc"/></linearGradient><linearGradient id="eouXs3khZAc3-fill" x1="0.5" y1="0" x2="0.5" y2="1" spreadMethod="pad" gradientUnits="objectBoundingBox" gradientTransform="translate(0 0)"><stop id="eouXs3khZAc3-fill-0" offset="0%" stop-color="#05ccf5"/><stop id="eouXs3khZAc3-fill-1" offset="100%" stop-color="#5827cc"/></linearGradient><linearGradient id="eouXs3khZAc6-fill" x1="0.5" y1="0" x2="0.5" y2="1" spreadMethod="pad" gradientUnits="objectBoundingBox" gradientTransform="translate(0 0)"><stop id="eouXs3khZAc6-fill-0" offset="0%" stop-color="#1715d6"/><stop id="eouXs3khZAc6-fill-1" offset="100%" stop-color="#e00000"/></linearGradient></defs><g id="eouXs3khZAc2_to" transform="translate(3430.206336,1893.095176)"><path d="M-1844.96718,2333.38432c0,0,299.864719-315.634609,494.316719-315.634609s209.761981,215.321709,440.063851,215.321739s202.93888-229.29209,407.9633-229.29209s151.34122,175.66141,375.06304,175.66144s241.72338-125.84549,407.09401-125.84549s191.69084,179.47614,395.67249,179.47614s223.72181-179.47614,394.8032-179.47614s177.66144,179.47614,414.54335,179.47614s210.5617-179.47614,434.28352-179.47614s183.344255,279.78901,351.64879,279.78901s0,1369.7139,0,1369.7139h-4115.45225l-.00002-1369.7139Zm4115.45238,0c216.406012,0,218.121615-273.46356,412.573615-273.46356s215.144435,214.571748,445.446305,214.571778s279.29951-270.713178,484.32393-270.713178s151.34122,175.66141,375.06304,175.66144s241.72338-125.84549,407.09401-125.84549s191.69084,179.47614,395.67249,179.47614s223.72181-179.47614,394.8032-179.47614s177.66144,179.47614,414.54335,179.47614s210.5617-179.47614,434.28352-179.47614s351.64879,279.78901,351.64879,279.78901v1369.7139h-4115.45225c0,0-216.406013-1369.7139,0-1369.7139Z" transform="rotate(10) translate(-2270.485135,-2853.43879)" fill="url(#eouXs3khZAc2-fill)" stroke-width="0"/></g><g id="eouXs3khZAc3_to" transform="translate(3187.710859,-497.48389)"><path d="M-1844.96718,2333.38432c0,0,242.4775-279.78901,436.9295-279.78901s267.1492,179.47611,497.45107,179.47614s202.93888-229.29209,407.9633-229.29209s151.34122,175.66141,375.06304,175.66144s241.72338-125.84549,407.09401-125.84549s191.69084,179.47614,395.67249,179.47614s223.72181-179.47614,394.8032-179.47614s177.66144,179.47614,414.54335,179.47614s210.5617-179.47614,434.28352-179.47614s183.344255,279.78901,351.64879,279.78901s0,1369.7139,0,1369.7139h-4115.45225l-.00002-1369.7139Zm4115.45238,0c216.406012,0,242.47748-279.78901,436.92948-279.78901s267.1492,179.47611,497.45107,179.47614s202.93888-229.29209,407.9633-229.29209s151.34122,175.66141,375.06304,175.66144s241.72338-125.84549,407.09401-125.84549s191.69084,179.47614,395.67249,179.47614s223.72181-179.47614,394.8032-179.47614s177.66144,179.47614,414.54335,179.47614s210.5617-179.47614,434.28352-179.47614s351.64879,279.78901,351.64879,279.78901v1369.7139h-4115.45225c0,0-216.406013-1369.7139,0-1369.7139Z" transform="rotate(-40) translate(-2270.485135,-2853.43879)" fill="url(#eouXs3khZAc3-fill)" stroke-width="0"/></g><g id="eouXs3khZAc6_to" transform="translate(4048.495902,540)"><path d="M-1844.96718,2333.38432c0,0,242.4775-279.78901,436.9295-279.78901s267.1492,179.47611,497.45107,179.47614s202.93888-229.29209,407.9633-229.29209s151.34122,175.66141,375.06304,175.66144s241.72338-125.84549,407.09401-125.84549s191.69084,179.47614,395.67249,179.47614s223.72181-179.47614,394.8032-179.47614s177.66144,179.47614,414.54335,179.47614s210.5617-179.47614,434.28352-179.47614s183.344255,279.78901,351.64879,279.78901s0,1369.7139,0,1369.7139h-4115.45225l-.00002-1369.7139Zm4115.45238,0c216.406012,0,242.47748-279.78901,436.92948-279.78901s268.985108,176.523654,499.286978,176.523684s201.102972-226.339634,406.127392-226.339634s151.34122,175.66141,375.06304,175.66144s241.72338-125.84549,407.09401-125.84549s191.69084,179.47614,395.67249,179.47614s223.72181-179.47614,394.8032-179.47614s177.66144,179.47614,414.54335,179.47614s210.5617-179.47614,434.28352-179.47614s351.64879,279.78901,351.64879,279.78901v1369.7139h-4115.45225c0,0-216.406013-1369.7139,0-1369.7139Z" transform="rotate(-20) translate(-2270.485135,-2853.43879)" fill="url(#eouXs3khZAc6-fill)" stroke-width="0"/></g></svg>

