<?xml version="1.0" standalone="no"?>
<!DOCTYPE svg PUBLIC "-//W3C//DTD SVG 20010904//EN"
 "http://www.w3.org/TR/2001/REC-SVG-20010904/DTD/svg10.dtd">
<svg version="1.0" xmlns="http://www.w3.org/2000/svg"
 width="482.000000pt" height="518.000000pt" viewBox="0 0 482.000000 518.000000"
 preserveAspectRatio="xMidYMid meet">

<g transform="translate(0.000000,518.000000) scale(0.100000,-0.100000)"
fill="#000000" stroke="none">
<path d="M2250 4173 c-161 -17 -386 -84 -523 -156 -94 -50 -94 -49 -176 -107
-35 -25 -73 -51 -85 -59 -54 -36 -247 -245 -303 -330 -53 -80 -127 -215 -155
-286 -37 -95 -51 -140 -73 -235 -28 -125 -45 -320 -27 -320 6 0 41 11 79 23
37 13 95 32 128 41 66 19 236 71 475 146 85 27 189 58 230 70 41 12 122 38
180 57 245 81 366 98 492 72 83 -18 164 -64 233 -134 43 -44 109 -164 134
-247 13 -40 40 -129 62 -198 21 -69 57 -186 79 -260 63 -207 108 -353 152
-495 22 -71 44 -143 49 -160 24 -83 52 -170 55 -174 8 -10 165 123 248 210
113 118 197 239 264 379 45 95 92 224 107 290 3 14 12 54 21 90 21 88 30 364
15 472 -25 179 -68 322 -143 473 -46 92 -54 105 -63 97 -5 -4 -5 -2 -2 5 9 15
-54 109 -147 221 -71 86 -219 219 -237 215 -5 -2 -9 1 -9 6 0 14 -124 93 -228
145 -149 75 -320 126 -482 146 -80 9 -273 11 -350 3z"/>
<path d="M2130 2468 c-52 -16 -120 -38 -150 -49 -30 -11 -62 -21 -70 -23 -23
-3 -144 -40 -345 -105 -99 -32 -261 -84 -360 -116 -99 -32 -184 -61 -188 -65
-13 -12 67 -169 146 -288 87 -130 252 -299 382 -391 156 -110 375 -202 585
-247 64 -14 130 -18 270 -18 178 0 350 17 350 36 0 10 -59 214 -70 242 -5 11
-20 59 -34 106 -53 179 -98 327 -111 365 -8 22 -35 110 -60 195 -115 385 -118
390 -200 389 -27 -1 -93 -14 -145 -31z"/>
</g>
</svg>
